<?xml version="1.0" encoding="UTF-8"?>
<!DOCTYPE svg PUBLIC "-//W3C//DTD SVG 1.0//EN" "http://www.w3.org/TR/2001/REC-SVG-20010904/DTD/svg10.dtd">
<!-- Creator: CorelDRAW 2018 (64 Bit Versão de avaliação) -->
<svg xmlns="http://www.w3.org/2000/svg" xml:space="preserve" width="2480px" height="3508px" version="1.0" shape-rendering="geometricPrecision" text-rendering="geometricPrecision" image-rendering="optimizeQuality" fill-rule="evenodd" clip-rule="evenodd"
viewBox="0 0 2480 3507.43"
 xmlns:xlink="http://www.w3.org/1999/xlink">
 <g id="Camada_x0020_1">
  <metadata id="CorelCorpID_0Corel-Layer"/>
  <rect fill="#605B91" stroke="black" stroke-width="2.36" stroke-miterlimit="22.9256" x="3833.46" y="-4735.99" width="384.33" height="371.83"/>
  <rect fill="#605B91" x="-2036.13" y="-3938.16" width="4919.38" height="2609.67"/>
  <rect fill="#71F26D" x="3570.96" y="-5505.24" width="879.07" height="424.89"/>
  <g id="_2271302057984">
   <path fill="#71F26D" d="M1320.73 1903.56c23.29,-20.1 19.74,-23.96 35.98,-56.7 9.14,-18.42 17.47,-35.24 26.38,-53.1l618.63 -1209.96c39.28,-76.86 75.01,-143.57 113.58,-218.77 19.21,-37.44 36.63,-72.69 56.84,-108.85 26.56,-47.52 43.94,-60.22 83.94,-19.36 2.1,41.69 -11.64,56.59 -26.4,86.72l-473.15 979c-8.07,16.78 -13.43,29.99 -19.11,40.13 -6.5,11.6 -11.09,15.74 -18.09,31.61 -6.81,15.46 -8.56,23.91 -16.98,39.16 -12.36,22.41 -10.16,10.38 -17.2,41.78 25.56,18.15 126.16,136.17 155.98,168.84 92.04,100.89 204.31,241.06 289.73,353.26 127.87,167.97 151.64,167.31 107.69,221.47l-36.14 -0.56 -551.41 -658.05c-2.41,1.47 -5.32,2.88 -7.25,4.37 -30.65,23.69 -98.33,181.05 -115.91,216.11 -189.78,378.38 -121.81,329.39 -396.9,146.4 -14.78,-9.83 -31.43,-19.8 -47.71,-31.57 -11.34,-8.19 -15.53,-12.79 -24.31,-18.22 -21.93,-13.56 -9.71,-6.16 -31.99,-13.16 -47.31,130.25 -105.62,256.49 -150.49,386.03l-21.85 50.16c-136.76,323.27 -268.88,645.36 -422.61,964.48 -47.79,99.2 -86.71,57.55 -96.03,34.58 -10.34,-25.52 282.86,-724.61 327.15,-832.49l129.24 -290.35c31.92,-74.82 149.15,-321.71 162.99,-369.17 -56.21,-30.43 -120.38,-80.66 -173.39,-116.48 -55.26,-37.35 -487.25,-318.68 -489.08,-350.01 6.75,-27.64 17.38,-38.17 45,-45.06l370.46 231.73c17.16,14.45 8.1,9.55 28.07,22.87l92.4 59.28c50.73,33.34 445.79,295.18 491.94,313.88zm1030.81 342.34c17.62,-44.25 7.38,-1415.33 7.38,-1683.87 0,-90.51 15.01,-260.73 -14.84,-327.85 -31.37,-70.51 -121.89,-134.82 -231.91,-87.62l-211.91 120.39c-348.6,201.33 -722.89,425.51 -1071.12,620.11l-430.95 248.48c-73.52,44.69 -149.32,68.92 -175.87,156.93 -20.82,68.97 -6.56,562.24 -5.98,671.48 0.9,169.24 -17.53,1264.7 14.48,1335.86 31.36,69.72 126.38,130.75 227.39,94.73l162.03 -91.32c20.09,-11.88 30.91,-24.2 48.04,-32.38l433.35 -245.83c141.88,-84.43 284.87,-163.13 425.36,-246.55 142.95,-84.88 285.55,-164.7 430.59,-248.48l321.06 -185.33c44.98,-29.38 51.3,-44.47 72.9,-98.75zm-1030.81 -342.34c-46.15,-18.7 -441.21,-280.54 -491.94,-313.88l-92.4 -59.28c-19.97,-13.32 -10.91,-8.42 -28.07,-22.87l-370.46 -231.73c-27.62,6.89 -38.25,17.42 -45,45.06 1.83,31.33 433.82,312.66 489.08,350.01 53.01,35.82 117.18,86.05 173.39,116.48 -13.84,47.46 -131.07,294.35 -162.99,369.17l-129.24 290.35c-44.29,107.88 -337.49,806.97 -327.15,832.49 9.32,22.97 48.24,64.62 96.03,-34.58 153.73,-319.12 285.85,-641.21 422.61,-964.48l21.85 -50.16c44.87,-129.54 103.18,-255.78 150.49,-386.03 22.28,7 10.06,-0.4 31.99,13.16 8.78,5.43 12.97,10.03 24.31,18.22 16.28,11.77 32.93,21.74 47.71,31.57 275.09,182.99 207.12,231.98 396.9,-146.4 17.58,-35.06 85.26,-192.42 115.91,-216.11 1.93,-1.49 4.84,-2.9 7.25,-4.37l551.41 658.05 36.14 0.56c43.95,-54.16 20.18,-53.5 -107.69,-221.47 -85.42,-112.2 -197.69,-252.37 -289.73,-353.26 -29.82,-32.67 -130.42,-150.69 -155.98,-168.84 7.04,-31.4 4.84,-19.37 17.2,-41.78 8.42,-15.25 10.17,-23.7 16.98,-39.16 7,-15.87 11.59,-20.01 18.09,-31.61 5.68,-10.14 11.04,-23.35 19.11,-40.13l473.15 -979c14.76,-30.13 28.5,-45.03 26.4,-86.72 -40,-40.86 -57.38,-28.16 -83.94,19.36 -20.21,36.16 -37.63,71.41 -56.84,108.85 -38.57,75.2 -74.3,141.91 -113.58,218.77l-618.63 1209.96c-8.91,17.86 -17.24,34.68 -26.38,53.1 -16.24,32.74 -12.69,36.6 -35.98,56.7z"/>
   <g>
    <path fill="#605B91" d="M1239.22 1907.3c23.3,-20.1 19.75,-23.95 35.99,-56.7 9.14,-18.41 17.46,-35.24 26.37,-53.09l618.64 -1209.97c39.27,-76.86 75.01,-143.57 113.57,-218.77 19.21,-37.44 36.63,-72.69 56.85,-108.85 26.56,-47.52 43.94,-60.22 83.93,-19.36 2.1,41.7 -11.63,56.59 -26.4,86.72l-473.14 979c-8.08,16.78 -13.43,29.99 -19.12,40.13 -6.5,11.6 -11.08,15.75 -18.08,31.62 -6.82,15.45 -8.57,23.9 -16.98,39.15 -12.36,22.41 -10.17,10.38 -17.21,41.79 25.56,18.14 126.17,136.16 155.98,168.84 92.04,100.88 204.31,241.05 289.74,353.26 127.87,167.96 151.63,167.3 107.69,221.46l-36.14 -0.56 -551.42 -658.05c-2.4,1.47 -5.31,2.88 -7.24,4.37 -30.66,23.69 -98.33,181.05 -115.91,216.11 -189.78,378.38 -121.81,329.39 -396.9,146.4 -14.79,-9.83 -31.44,-19.8 -47.71,-31.56 -11.34,-8.2 -15.53,-12.8 -24.31,-18.23 -21.94,-13.56 -9.71,-6.16 -31.99,-13.16 -47.31,130.25 -105.62,256.49 -150.49,386.03l-21.86 50.16c-136.76,323.27 -268.88,645.36 -422.6,964.48 -47.79,99.2 -86.72,57.55 -96.03,34.58 -10.34,-25.52 282.86,-724.61 327.14,-832.49l129.25 -290.35c31.92,-74.82 149.15,-321.71 162.99,-369.17 -56.22,-30.43 -120.39,-80.66 -173.4,-116.48 -55.25,-37.35 -487.25,-318.68 -489.08,-350.01 6.75,-27.64 17.38,-38.17 45.01,-45.06l370.45 231.73c17.16,14.45 8.11,9.55 28.07,22.88l92.4 59.27c50.73,33.35 445.8,295.18 491.94,313.88zm1030.82 342.35c17.61,-44.26 7.37,-1415.34 7.37,-1683.88 0,-90.51 15.02,-260.73 -14.84,-327.85 -31.36,-70.51 -121.88,-134.82 -231.9,-87.62l-211.91 120.39c-348.6,201.33 -722.89,425.52 -1071.13,620.11l-430.94 248.48c-73.52,44.69 -149.32,68.92 -175.88,156.93 -20.81,68.97 -6.56,562.24 -5.98,671.48 0.9,169.25 -17.53,1264.7 14.48,1335.87 31.36,69.71 126.38,130.74 227.4,94.72l162.02 -91.32c20.1,-11.88 30.91,-24.2 48.05,-32.38l433.35 -245.83c141.87,-84.43 284.86,-163.13 425.36,-246.55 142.94,-84.88 285.55,-164.7 430.58,-248.47l321.07 -185.33c44.98,-29.39 51.29,-44.48 72.9,-98.75z"/>
    <path fill="#71F26D" d="M1239.22 1907.3c-46.14,-18.7 -441.21,-280.53 -491.94,-313.88l-92.4 -59.27c-19.96,-13.33 -10.91,-8.43 -28.07,-22.88l-370.45 -231.73c-27.63,6.89 -38.26,17.42 -45.01,45.06 1.83,31.33 433.83,312.66 489.08,350.01 53.01,35.82 117.18,86.05 173.4,116.48 -13.84,47.46 -131.07,294.35 -162.99,369.17l-129.25 290.35c-44.28,107.88 -337.48,806.97 -327.14,832.49 9.31,22.97 48.24,64.62 96.03,-34.58 153.72,-319.12 285.84,-641.21 422.6,-964.48l21.86 -50.16c44.87,-129.54 103.18,-255.78 150.49,-386.03 22.28,7 10.05,-0.4 31.99,13.16 8.78,5.43 12.97,10.03 24.31,18.23 16.27,11.76 32.92,21.73 47.71,31.56 275.09,182.99 207.12,231.98 396.9,-146.4 17.58,-35.06 85.25,-192.42 115.91,-216.11 1.93,-1.49 4.84,-2.9 7.24,-4.37l551.42 658.05 36.14 0.56c43.94,-54.16 20.18,-53.5 -107.69,-221.46 -85.43,-112.21 -197.7,-252.38 -289.74,-353.26 -29.81,-32.68 -130.42,-150.7 -155.98,-168.84 7.04,-31.41 4.85,-19.38 17.21,-41.79 8.41,-15.25 10.16,-23.7 16.98,-39.15 7,-15.87 11.58,-20.02 18.08,-31.62 5.69,-10.14 11.04,-23.35 19.12,-40.13l473.14 -979c14.77,-30.13 28.5,-45.02 26.4,-86.72 -39.99,-40.86 -57.37,-28.16 -83.93,19.36 -20.22,36.16 -37.64,71.41 -56.85,108.85 -38.56,75.2 -74.3,141.91 -113.57,218.77l-618.64 1209.97c-8.91,17.85 -17.23,34.68 -26.37,53.09 -16.24,32.75 -12.69,36.6 -35.99,56.7z"/>
   </g>
  </g>
 </g>
</svg>
